Paycheck 2003 BRRip H264 AAC-MS.mp4
Format : MPEG-4
Format profile : Base Media
Codec ID : isom
File size : 1.76 GiB
Duration : 1h 58mn
Overall bit rate : 2 126 Kbps
 
http://www.imdb.com/title/tt0338337/

Video #1
Format : AVC
Format/Info : Advanced Video Codec
Format profile : High@L4.1
Format settings, CABAC : Yes
Format settings, ReFrames : 3 frames
Codec ID : avc1
Codec ID/Info : Advanced Video Coding
Duration : 1h 58mn
Bit rate mode : Variable
Bit rate : 1 800 Kbps
Maximum bit rate : 9 369 Kbps
Width : 1 280 pixels
Height : 544 pixels
Display aspect ratio : 2.35
Frame rate mode : Constant
Frame rate : 24.000 fps
Resolution : 24 bits
Colorimetry : 4:2:0
Scan type : Progressive
Bits/(Pixel*Frame) : 0.108
Stream size : 1.49 GiB (85%)
Writing library : x264 core 80 r1376M 3feaec2

Audio #2
Format : AAC
Format/Info : Advanced Audio Codec
Format version : Version 4
Format profile : LC
Format settings, SBR : No
Codec ID : 40
Duration : 1h 58mn
Bit rate mode : Variable
Bit rate : 325 Kbps
Maximum bit rate : 396 Kbps
Channel(s) : 6 channels
Channel positions : Front: L C R, Rear: L R, LFE
Sampling rate : 48.0 KHz
Resolution : 16 bits
Stream size : 276 MiB (15%)
